# xmcd
#
# Track frame offsets: 
#        150
#        18182
#        35760
#        48032
#        65067
#        83592
#        101295
#        117727
#        130295
#        146367
#        163690
#        181630
#        198467
#        211360
#        226285
#
# Disc length: 3251 seconds
#
# Revision: 3
# Processed by: cddbd v1.5.2PL0 Copyright (c) Steve Scherf et al.
# Submitted via: ExactAudioCopy v0.99pb5
#
DISCID=c70cb10f
DTITLE=Mirabela Dauer - Tu
DYEAR=1996
DGENRE=Oldies
TTITLE0=O iubire ca-n povesti (folclor mediteranean - Dan Ioan Pantoiu
TTITLE0=)
TTITLE1=Iarta-ma! (Catalin Crisan - Catalin Crisan)
TTITLE2=Sunt doar eu (folclor sarb - Dan Ioan Pantoiu)
TTITLE3=Nu mi-ai spus la revedere (folclor mediteranean - Dan Ioan Pan
TTITLE3=toiu)
TTITLE4=Sa stii ca nu e adevarat (Horia Moculescu - Aurel Storin)
TTITLE5=A mai trecut o seara (Petre Galusanu - Andreea Andrei)
TTITLE6=Suflet de toamna (Catalin Crisan - Catalin Crisan)
TTITLE7=Cand te-am pierdut
TTITLE8=Dar te-am iubit (folclor sarb - Dan Ioan Pantoiu)
TTITLE9=Eu te-am crezut (Mihai Elekes - Dan Ioan Pantoiu)
TTITLE10=Iubirea ta (folclor sarb - Dan Ioan Pantoiu)
TTITLE11=Vino (Dinu Giurgiu - Elena Giurgiu)
TTITLE12=Peste ani (Catalin Crisan - Catalin Crisan)
TTITLE13=Sunt calatoare (folclor sarb - Dan Ioan Pantoiu)
TTITLE14=Tu (international - Dan Ioan Pantoiu)
EXTD=YEAR: 2003
EXTT0=
EXTT1=
EXTT2=
EXTT3=
EXTT4=
EXTT5=
EXTT6=
EXTT7=
EXTT8=
EXTT9=
EXTT10=
EXTT11=
EXTT12=
EXTT13=
EXTT14=
PLAYORDER=
